# xmcd CD database file
#
# Track frame offsets:
#	150
#	15707
#	36212
#	62012
#	81222
#	101100
#	127845
#	147192
#	162535
#	178927
#	197552
#	224807
#	255177
#	277872
#	300250
#	311947
#
# Disc length: 4381 seconds
#
# Revision: 5
# Processed by: cddbd v1.5.2PL0 Copyright (c) Steve Scherf et al.
# Submitted via: CDex 1.51
#
DISCID=e1111b10
DTITLE=YNGWIE J. MALMSTEEN'S RISING FORCE - ATTACK !!
DYEAR=2002
DGENRE=Heavy Metal
TTITLE0=Razor Eater
TTITLE1=Rise Up
TTITLE2=Valley Of Kings
TTITLE3=Ship Of Fools
TTITLE4=Attack !!
TTITLE5=Baroque and Roll
TTITLE6=Stronghold
TTITLE7=Mad Dog
TTITLE8=In The Name Of God
TTITLE9=Freedom Isn't Free
TTITLE10=Majestic Blue
TTITLE11=Valhalla
TTITLE12=Touch The Sky
TTITLE13=Iron Clad
TTITLE14=Air
TTITLE15=Nobody's Fool *
EXTD=YEAR: 2002
EXTT0=
EXTT1=
EXTT2=
EXTT3=
EXTT4=
EXTT5=
EXTT6=
EXTT7=
EXTT8=
EXTT9=
EXTT10=
EXTT11=
EXTT12=
EXTT13=
EXTT14=
EXTT15=
PLAYORDER=
